# Blender 4.2.3 LTS
# www.blender.org
mtllib corneil.mtl
o Object_2
v -0.990000 -0.993442 -1.040000
v 1.000000 -0.993442 -1.040000
v 1.000000 0.996558 -1.040000
v -1.020000 0.996558 -1.040000
vn -0.0000 -0.0000 1.0000
s 0
usemtl backWall.002
f 1//1 2//1 3//1
f 1//1 3//1 4//1
o Object_3
v -1.020000 0.996559 0.990000
v -1.020000 0.996558 -1.040000
v 1.000000 0.996558 -1.040000
v 1.000000 0.996559 0.990000
vn -0.0000 -1.0000 -0.0000
s 0
usemtl ceiling.004
f 5//2 6//2 7//2
f 5//2 7//2 8//2
o Object_4
v -1.010000 -0.993441 0.990000
v 1.000000 -0.993441 0.990000
v 1.000000 -0.993442 -1.040000
v -0.990000 -0.993442 -1.040000
vn -0.0000 1.0000 -0.0000
s 0
usemtl floor.002
f 9//3 10//3 11//3
f 9//3 11//3 12//3
o Object_5
v -1.010000 -0.993441 0.990000
v -0.990000 -0.993442 -1.040000
v -1.020000 0.996558 -1.040000
v -1.020000 0.996559 0.990000
vn 0.9999 0.0100 0.0049
vn 0.9998 0.0151 0.0099
vn 0.9999 0.0101 0.0050
vn 1.0000 0.0050 -0.0000
s 1
usemtl leftWall.002
f 13//4 14//5 15//6
f 13//4 15//6 16//7
o Object_6
v -0.240000 0.986559 0.160000
v -0.240000 0.986558 -0.220000
v 0.230000 0.986558 -0.220000
v 0.230000 0.986559 0.160000
vn -0.0000 -1.0000 -0.0000
s 0
usemtl light.002
f 17//8 18//8 19//8
f 17//8 19//8 20//8
o Object_7
v 1.000000 -0.993442 -1.040000
v 1.000000 -0.993441 0.990000
v 1.000000 0.996559 0.990000
v 1.000000 0.996558 -1.040000
vn -1.0000 -0.0000 -0.0000
s 0
usemtl rightWall.002
f 21//9 22//9 23//9
f 21//9 23//9 24//9
o Object_8
v 0.530000 -0.393441 0.750000
v 0.700000 -0.393441 0.170000
v 0.130000 -0.393441 0.000000
v -0.050000 -0.393441 0.570000
v -0.050000 -0.993441 0.570000
v 0.130000 -0.993441 0.000000
v 0.530000 -0.993441 0.750000
v 0.700000 -0.993441 0.170000
v 0.700000 -0.993441 0.170000
v 0.700000 -0.393441 0.170000
v 0.700000 -0.393441 0.170000
v -0.050000 -0.393441 0.570000
v -0.050000 -0.393441 0.570000
v -0.050000 -0.993441 0.570000
v 0.530000 -0.993441 0.750000
v 0.530000 -0.393441 0.750000
v 0.530000 -0.393441 0.750000
v 0.130000 -0.993441 0.000000
v 0.130000 -0.393441 0.000000
v 0.130000 -0.393441 0.000000
vn -0.0000 1.0000 -0.0000
vn -0.9536 -0.0000 -0.3011
vn -0.2964 -0.0000 0.9551
vn 0.9596 -0.0000 0.2813
vn 0.2858 -0.0000 -0.9583
s 0
usemtl shortBox.002
f 25//10 26//10 27//10
f 25//10 27//10 28//10
f 29//11 36//11 43//11
f 29//11 43//11 30//11
f 31//12 40//12 37//12
f 31//12 37//12 38//12
f 32//13 34//13 41//13
f 32//13 41//13 39//13
f 42//14 44//14 35//14
f 42//14 35//14 33//14
o Object_9
v -0.530000 0.206559 0.090000
v 0.040000 0.206559 -0.090000
v -0.140000 0.206558 -0.670000
v -0.710000 0.206558 -0.490000
v -0.530000 -0.993441 0.090000
v -0.710000 -0.993441 -0.490000
v -0.140000 -0.993442 -0.670000
v 0.040000 -0.993441 -0.090000
v 0.040000 -0.993441 -0.090000
v 0.040000 0.206559 -0.090000
v 0.040000 0.206559 -0.090000
v -0.140000 -0.993442 -0.670000
v -0.140000 0.206558 -0.670000
v -0.140000 0.206558 -0.670000
v -0.530000 0.206559 0.090000
v -0.530000 0.206559 0.090000
v -0.530000 -0.993441 0.090000
v -0.710000 -0.993441 -0.490000
v -0.710000 0.206558 -0.490000
v -0.710000 0.206558 -0.490000
vn -0.0000 1.0000 -0.0000
vn -0.9551 -0.0000 0.2964
vn -0.3011 -0.0000 -0.9536
vn 0.9551 -0.0000 -0.2964
vn 0.3011 -0.0000 0.9536
s 0
usemtl tallBox.002
f 45//15 46//15 47//15
f 45//15 47//15 48//15
f 49//16 59//16 63//16
f 49//16 63//16 50//16
f 62//17 64//17 57//17
f 62//17 57//17 51//17
f 56//18 58//18 54//18
f 56//18 54//18 52//18
f 53//19 55//19 60//19
f 53//19 60//19 61//19
