# Blender 4.2.3 LTS
# www.blender.org
mtllib corneil_empty.mtl
o Object_2
v -0.990000 -0.993442 -1.040000
v 1.000000 -0.993442 -1.040000
v 1.000000 0.996558 -1.040000
v -1.020000 0.996558 -1.040000
vn -0.0000 -0.0000 1.0000
s 0
usemtl backWall.002
f 1//1 2//1 3//1
f 1//1 3//1 4//1
o Object_3
v -1.020000 0.996559 0.990000
v -1.020000 0.996558 -1.040000
v 1.000000 0.996558 -1.040000
v 1.000000 0.996559 0.990000
vn -0.0000 -1.0000 -0.0000
s 0
usemtl ceiling.004
f 5//2 6//2 7//2
f 5//2 7//2 8//2
o Object_4
v -1.010000 -0.993441 0.990000
v 1.000000 -0.993441 0.990000
v 1.000000 -0.993442 -1.040000
v -0.990000 -0.993442 -1.040000
vn -0.0000 1.0000 -0.0000
s 0
usemtl floor.002
f 9//3 10//3 11//3
f 9//3 11//3 12//3
o Object_5
v -1.010000 -0.993441 0.990000
v -0.990000 -0.993442 -1.040000
v -1.020000 0.996558 -1.040000
v -1.020000 0.996559 0.990000
vn 0.9999 0.0100 0.0049
vn 0.9998 0.0151 0.0099
vn 0.9999 0.0101 0.0050
vn 1.0000 0.0050 -0.0000
s 1
usemtl leftWall.002
f 13//4 14//5 15//6
f 13//4 15//6 16//7
o Object_6
v -0.240000 0.986559 0.160000
v -0.240000 0.986558 -0.220000
v 0.230000 0.986558 -0.220000
v 0.230000 0.986559 0.160000
vn -0.0000 -1.0000 -0.0000
s 0
usemtl light.002
f 17//8 18//8 19//8
f 17//8 19//8 20//8
o Object_7
v 1.000000 -0.993442 -1.040000
v 1.000000 -0.993441 0.990000
v 1.000000 0.996559 0.990000
v 1.000000 0.996558 -1.040000
vn -1.0000 -0.0000 -0.0000
s 0
usemtl rightWall.002
f 21//9 22//9 23//9
f 21//9 23//9 24//9
