# Blender 4.2.3 LTS
# www.blender.org
mtllib box.mtl
o CornellBox-Original
v -2.286976 -2.000000 2.321325
v 2.343558 -2.000000 2.240499
v 2.261928 -2.000000 -2.436110
v -2.322531 -2.000000 -2.356088
v -2.310013 2.585157 2.321727
v -2.391644 2.585157 -2.354881
v 2.261928 2.585157 -2.436110
v 2.343558 2.585157 2.240499
v -2.322531 -2.000000 -2.356088
v 2.261928 -2.000000 -2.436110
v 2.261928 2.585157 -2.436110
v -2.391644 2.585157 -2.354881
v 2.261928 -2.000000 -2.436110
v 2.343558 -2.000000 2.240499
v 2.343558 2.585157 2.240499
v 2.261928 2.585157 -2.436110
v -2.286976 -2.000000 2.321325
v -2.322531 -2.000000 -2.356088
v -2.391644 2.585157 -2.354881
v -2.310013 2.585157 2.321727
v 1.251145 -0.617541 1.706499
v 1.619460 -0.617540 0.363489
v 0.299487 -0.617540 -0.005228
v -0.092267 -0.617540 1.315147
v -0.092267 -2.000000 1.315147
v -0.092267 -0.617540 1.315147
v 0.299487 -0.617540 -0.005228
v 0.299487 -2.000000 -0.005228
v 1.251145 -2.000000 1.706499
v 1.251145 -0.617541 1.706499
v -0.092267 -0.617540 1.315147
v -0.092267 -2.000000 1.315147
v 1.619460 -2.000000 0.363489
v 1.619460 -0.617540 0.363489
v 1.251145 -0.617541 1.706499
v 1.251145 -2.000000 1.706499
v 0.299487 -2.000000 -0.005228
v 0.299487 -0.617540 -0.005228
v 1.619460 -0.617540 0.363489
v 1.619460 -2.000000 0.363489
v -1.217367 0.764919 0.228650
v 0.088531 0.764919 -0.208946
v -0.349467 0.764919 -1.537881
v -1.655365 0.764919 -1.100286
v -1.217367 -2.000000 0.228650
v -1.217367 0.764919 0.228650
v -1.655365 0.764919 -1.100286
v -1.655365 -2.000000 -1.100286
v -1.655365 -2.000000 -1.100286
v -1.655365 0.764919 -1.100286
v -0.349467 0.764919 -1.537881
v -0.349467 -2.000000 -1.537882
v -0.349467 -2.000000 -1.537882
v -0.349467 0.764919 -1.537881
v 0.088531 0.764919 -0.208946
v 0.088531 -2.000000 -0.208946
v 0.088531 -2.000000 -0.208946
v 0.088531 0.764919 -0.208946
v -1.217367 0.764919 0.228650
v -1.217367 -2.000000 0.228650
v -0.546466 2.562116 0.378251
v -0.561746 2.562116 -0.497174
v 0.521015 2.562116 -0.516073
v 0.536296 2.562116 0.359351
vn -0.0000 1.0000 -0.0000
vn -0.0000 -1.0000 -0.0000
vn 0.0175 -0.0000 0.9998
vn -0.9998 -0.0000 0.0175
vn 0.9999 0.0100 -0.0125
vn -0.9587 -0.0000 -0.2844
vn -0.2797 -0.0000 0.9601
vn 0.9644 -0.0000 0.2645
vn 0.2690 -0.0000 -0.9631
vn -0.9497 -0.0000 0.3130
vn -0.3177 -0.0000 -0.9482
vn 0.9497 -0.0000 -0.3130
vn 0.3177 -0.0000 0.9482
s 0
usemtl floor
f 1//1 2//1 3//1 4//1
usemtl ceiling
f 5//2 6//2 7//2 8//2
usemtl backWall
f 9//3 10//3 11//3 12//3
usemtl rightWall
f 13//4 14//4 15//4 16//4
usemtl leftWall
f 17//5 18//5 19//5 20//5
usemtl shortBox
f 21//1 22//1 23//1 24//1
f 25//6 26//6 27//6 28//6
f 29//7 30//7 31//7 32//7
f 33//8 34//8 35//8 36//8
f 37//9 38//9 39//9 40//9
usemtl tallBox
f 41//1 42//1 43//1 44//1
f 45//10 46//10 47//10 48//10
f 49//11 50//11 51//11 52//11
f 53//12 54//12 55//12 56//12
f 57//13 58//13 59//13 60//13
usemtl light
f 61//2 62//2 63//2 64//2
