# Blender 4.2.3 LTS
# www.blender.org
mtllib corneil_box.mtl
o Plane
v 2.880419 -3.068777 3.124842
v 2.943108 -3.308517 -3.065687
v 2.884779 3.122070 2.885133
v 2.947468 2.882329 -3.305395
vn 0.9999 -0.0003 0.0101
vt 0.000000 0.000000
vt 1.000000 0.000000
vt 1.000000 1.000000
vt 0.000000 1.000000
s 0
f 1/1/1 2/2/1 4/3/1 3/4/1
o Plane.001
v -3.374862 -3.103533 -3.290524
v -3.324426 -3.345917 2.968372
v 2.888726 -3.101581 -3.340922
v 2.939162 -3.343964 2.917974
vn -0.0000 0.9993 0.0387
vt 0.000000 0.000000
vt 1.000000 0.000000
vt 1.000000 1.000000
vt 0.000000 1.000000
s 0
f 5/5/2 6/6/2 8/7/2 7/8/2
o Plane.002
v -3.157237 -3.070729 3.169650
v -3.529560 -3.310469 -3.009990
v -3.169726 3.120118 2.930227
v -3.542049 2.880378 -3.249413
vn 0.9982 -0.0003 -0.0601
vt 0.000000 0.000000
vt 1.000000 0.000000
vt 1.000000 1.000000
vt 0.000000 1.000000
s 0
f 9/9/3 10/10/3 12/11/3 11/12/3
o Plane.003
v -3.374862 3.155566 -3.048132
v -3.324426 2.913182 3.210764
v 2.888726 3.157518 -3.098530
v 2.939162 2.915134 3.160366
vn -0.0000 0.9993 0.0387
vt 0.000000 0.000000
vt 1.000000 0.000000
vt 1.000000 1.000000
vt 0.000000 1.000000
s 0
f 13/13/4 14/14/4 16/15/4 15/16/4
o Plane.004
v -3.374861 3.155566 -3.048131
v -3.374861 -3.103533 -3.290522
v 2.888727 3.157518 -3.098531
v 2.888727 -3.101581 -3.340922
vn 0.0081 -0.0387 0.9992
vt 0.000000 0.000000
vt 1.000000 0.000000
vt 1.000000 1.000000
vt 0.000000 1.000000
s 0
f 17/17/5 18/18/5 20/19/5 19/20/5
o Cube
v -2.786598 -3.210649 -0.524535
v -2.786598 -1.645874 -0.463938
v -1.727301 -3.166020 -1.676964
v -1.727301 -1.601245 -1.616366
v -1.633306 -3.251641 0.533968
v -1.633306 -1.686866 0.594566
v -0.574009 -3.207012 -0.618461
v -0.574009 -1.642237 -0.557863
vn -0.7365 0.0262 -0.6760
vn 0.6765 0.0285 -0.7359
vn 0.7365 -0.0262 0.6760
vn -0.6765 -0.0285 0.7359
vn -0.0000 -0.9993 -0.0387
vn -0.0000 0.9993 0.0387
vt 0.375000 0.000000
vt 0.625000 0.000000
vt 0.625000 0.250000
vt 0.375000 0.250000
vt 0.625000 0.500000
vt 0.375000 0.500000
vt 0.625000 0.750000
vt 0.375000 0.750000
vt 0.625000 1.000000
vt 0.375000 1.000000
vt 0.125000 0.500000
vt 0.125000 0.750000
vt 0.875000 0.500000
vt 0.875000 0.750000
s 0
f 21/21/6 22/22/6 24/23/6 23/24/6
f 23/24/7 24/23/7 28/25/7 27/26/7
f 27/26/8 28/25/8 26/27/8 25/28/8
f 25/28/9 26/27/9 22/29/9 21/30/9
f 23/31/10 27/26/10 25/28/10 21/32/10
f 28/25/11 24/33/11 22/34/11 26/27/11
o Cube.001
v 0.372722 -3.141871 -0.547329
v 0.372723 -0.147908 -0.431384
v 1.432019 -3.097242 -1.699758
v 1.432020 -0.103280 -1.583813
v 1.526014 -3.182863 0.511174
v 1.526015 -0.188900 0.627119
v 2.585311 -3.138234 -0.641254
v 2.585312 -0.144272 -0.525310
vn -0.7365 0.0262 -0.6760
vn 0.6765 0.0285 -0.7359
vn 0.7365 -0.0262 0.6760
vn -0.6765 -0.0285 0.7359
vn -0.0000 -0.9993 -0.0387
vn -0.0000 0.9993 0.0387
vt 0.375000 0.000000
vt 0.625000 0.000000
vt 0.625000 0.250000
vt 0.375000 0.250000
vt 0.625000 0.500000
vt 0.375000 0.500000
vt 0.625000 0.750000
vt 0.375000 0.750000
vt 0.625000 1.000000
vt 0.375000 1.000000
vt 0.125000 0.500000
vt 0.125000 0.750000
vt 0.875000 0.500000
vt 0.875000 0.750000
s 0
f 29/35/12 30/36/12 32/37/12 31/38/12
f 31/38/13 32/37/13 36/39/13 35/40/13
f 35/40/14 36/39/14 34/41/14 33/42/14
f 33/42/15 34/41/15 30/43/15 29/44/15
f 31/45/16 35/40/16 33/42/16 29/46/16
f 36/39/17 32/47/17 30/48/17 34/41/17
o Plane.005
v -1.050629 2.753312 -0.774894
v -1.037325 2.689375 0.876122
v 0.601625 2.753827 -0.788189
v 0.614929 2.689890 0.862828
vn -0.0000 0.9993 0.0387
vt 0.000000 0.000000
vt 1.000000 0.000000
vt 1.000000 1.000000
vt 0.000000 1.000000
s 0
f 37/49/18 38/50/18 40/51/18 39/52/18
